<svg id="Layer_1" enable-background="new 0 0 512 512" height="512" viewBox="0 0 512 512" width="512" xmlns="http://www.w3.org/2000/svg"><g><path d="m487.802 369.338h-43.444l14.888-4.527c3.885-1.099 6.254-5.537 5.003-9.376l-75.629-248.705c-2.555-9.073-12.916-14.606-21.877-11.675l-43.459 13.216c-3.018-5.308-8.714-8.902-15.244-8.902h-45.741c-3.725 0-7.176 1.177-10.02 3.165-2.843-1.989-6.294-3.165-10.02-3.165h-45.739c-8.54 0-15.664 6.14-17.213 14.236-.922-.15-1.862-.249-2.827-.249h-45.74c-.964 0-1.904.099-2.826.249-1.549-8.095-8.673-14.236-17.213-14.236h-45.742c-9.668 0-17.534 7.866-17.534 17.534v252.434h-23.227c-13.343.001-24.198 10.856-24.198 24.199 0 13.342 10.855 24.198 24.198 24.198h347.093c4.15 0 7.515-3.364 7.515-7.515s-3.364-7.515-7.515-7.515h-347.093c-5.056 0-9.169-4.113-9.169-9.168 0-5.056 4.113-9.169 9.169-9.169h463.604c5.056 0 9.169 4.114 9.169 9.169 0 5.056-4.113 9.168-9.169 9.168h-86.452c-4.15 0-7.515 3.364-7.515 7.515s3.364 7.515 7.515 7.515h86.452c13.343 0 24.198-10.855 24.198-24.198s-10.855-24.198-24.198-24.198zm-169.742-69.239c-4.15 0-7.515 3.364-7.515 7.515v61.724h-50.751v-176.962h50.751v85.179c0 4.151 3.364 7.515 7.515 7.515s7.515-3.364 7.515-7.515v-100.395l58.44 192.178h-58.44v-61.724c-.001-4.151-3.365-7.515-7.515-7.515zm-7.515-122.753h-50.751v-19.122h50.751zm-65.78 0h-50.751v-19.122h50.751zm-50.75 15.03h50.751v98.983h-50.751zm50.75 114.013v19.122h-50.751v-19.122zm-65.78 19.122h-50.751v-19.122h50.751zm-50.75 15.029h50.751v28.797h-50.751zm65.78 0h50.751v28.797h-50.751zm240.918-29.854-48.555 14.765-5.563-18.295 48.555-14.766zm-35.804 56.697-8.378-27.551 48.555-14.765 8.378 27.551zm-73.257-243.424c.182-.341.617-.954 1.481-1.216l43.762-13.308c1.468-.298 2.485.103 3.125 1.667l50.757 166.91-48.555 14.766-50.757-166.909c-.262-.865.005-1.568.187-1.91zm-63.573-9.561h45.741c1.381 0 2.505 1.123 2.505 2.505v8.115c0 .076-.001.152 0 .228v17.949h-50.751v-26.292c0-1.381 1.124-2.505 2.505-2.505zm-68.284 2.505c0-1.382 1.124-2.505 2.505-2.505h45.741c1.381 0 2.505 1.123 2.505 2.505v26.292h-50.751zm-131.561 41.321h50.751v19.122h-50.751zm2.505-43.826h45.741c1.381 0 2.505 1.123 2.505 2.505v26.292h-50.751v-26.292c0-1.381 1.124-2.505 2.505-2.505zm-2.505 77.978h50.751v34.463c0 4.151 3.365 7.515 7.515 7.515s7.515-3.364 7.515-7.515v-95.949c0-1.382 1.124-2.505 2.505-2.505h45.741c1.381 0 2.505 1.123 2.505 2.505v160.47h-50.751v-34.462c0-4.151-3.364-7.515-7.515-7.515s-7.515 3.364-7.515 7.515v112.44h-50.751z"/></g></svg>