<?xml version="1.0" encoding="utf-8"?>
<!-- Generator: Adobe Illustrator 22.0.0, SVG Export Plug-In . SVG Version: 6.00 Build 0)  -->
<svg version="1.1" id="Layer_1" xmlns="http://www.w3.org/2000/svg" xmlns:xlink="http://www.w3.org/1999/xlink" x="0px" y="0px"
	 viewBox="0 0 100 125" style="enable-background:new 0 0 100 125;" xml:space="preserve">
<g>
	<g>
		<path d="M8,34.5c0-2.2,1.8-4,4-4h10v-4H12c-4.4,0-8,3.6-8,8v10h4V34.5z M8,90.5v-10H4v10c0,4.4,3.6,8,8,8h10v-4H12
			C9.8,94.5,8,92.7,8,90.5z M92,90.5c0,2.2-1.8,4-4,4H78v4h10c4.4,0,8-3.6,8-8v-10h-4V90.5z M88,26.5H78v4h10c2.2,0,4,1.8,4,4v10h4
			v-10C96,30.1,92.4,26.5,88,26.5z M8,62.5c0,1.1,0.9,2,2,2h80c1.1,0,2-0.9,2-2s-0.9-2-2-2H10C8.9,60.5,8,61.4,8,62.5z M40,38.5h-4
			v18h4V38.5z M16,38.5v18h4v-18H16z M48,38.5h-4v18h4V38.5z M68,38.5h-4v18h4V38.5z M76,38.5h-4v18h4V38.5z M80,38.5v18h4v-18H80z
			 M32,38.5h-8v18h8V38.5z M60,38.5h-8v18h8V38.5z M36,86.5h4v-18h-4V86.5z M20,86.5v-18h-4v18H20z M44,86.5h4v-18h-4V86.5z
			 M64,86.5h4v-18h-4V86.5z M72,86.5h4v-18h-4V86.5z M84,86.5v-18h-4v18H84z M24,86.5h8v-18h-8V86.5z M52,86.5h8v-18h-8V86.5z"/>
	</g>
</g>
</svg>
